<?xml version="1.0" encoding="iso-8859-1"?>
<!-- Generator: Adobe Illustrator 19.0.0, SVG Export Plug-In . SVG Version: 6.00 Build 0)  -->
<svg version="1.1" id="Capa_1" xmlns="http://www.w3.org/2000/svg" xmlns:xlink="http://www.w3.org/1999/xlink" x="0px" y="0px"
	 viewBox="0 0 56 56" style="enable-background:new 0 0 56 56;" xml:space="preserve">
<circle style="fill:#E6E6E6;" cx="28" cy="28" r="28"/>
<path style="fill:#CCD6DB;" d="M56,28c0-7.098-2.646-13.575-7-18.51c-1.756,1.991-3.228,4.235-4.367,6.667l2.683,0.894
	c0.523,0.175,0.807,0.741,0.632,1.265C47.809,18.735,47.419,19,47,19c-0.104,0-0.211-0.017-0.316-0.052l-2.841-0.947
	c-0.437,1.141-0.802,2.317-1.089,3.525l3.387,0.484c0.547,0.078,0.927,0.584,0.849,1.131C46.919,23.64,46.491,24,46.001,24
	c-0.047,0-0.095-0.003-0.143-0.01l-3.489-0.498c-0.186,1.148-0.304,2.318-0.346,3.509H45c0.553,0,1,0.448,1,1s-0.447,1-1,1h-2.977
	c0.042,1.19,0.16,2.361,0.346,3.509l3.489-0.498c0.549-0.082,1.054,0.302,1.132,0.848c0.078,0.547-0.302,1.053-0.849,1.131
	l-3.387,0.484c0.286,1.207,0.652,2.384,1.089,3.525l2.841-0.947c0.528-0.175,1.09,0.109,1.265,0.632
	c0.175,0.524-0.108,1.09-0.632,1.265l-2.683,0.894c1.139,2.432,2.611,4.677,4.367,6.667C53.354,41.575,56,35.098,56,28z"/>
<path style="fill:#CCD6DB;" d="M11,29c-0.553,0-1-0.448-1-1s0.447-1,1-1h2.977c-0.042-1.19-0.16-2.361-0.346-3.509l-3.489,0.498
	C10.094,23.997,10.046,24,9.999,24c-0.49,0-0.918-0.36-0.989-0.858c-0.078-0.547,0.302-1.053,0.849-1.131l3.387-0.484
	c-0.286-1.207-0.652-2.384-1.089-3.525l-2.841,0.947C9.211,18.984,9.104,19,9,19c-0.419,0-0.809-0.265-0.948-0.684
	c-0.175-0.524,0.108-1.09,0.632-1.265l2.683-0.894C10.228,13.725,8.756,11.48,7,9.49C2.646,14.425,0,20.902,0,28
	s2.646,13.575,7,18.51c1.756-1.991,3.228-4.235,4.367-6.667l-2.683-0.894c-0.523-0.175-0.807-0.741-0.632-1.265
	c0.175-0.523,0.736-0.807,1.265-0.632l2.841,0.947c0.437-1.141,0.802-2.317,1.089-3.525L9.858,33.99
	c-0.547-0.078-0.927-0.584-0.849-1.131c0.078-0.546,0.587-0.926,1.132-0.848l3.489,0.498c0.186-1.148,0.304-2.318,0.346-3.509H11z"
	/>
<path style="fill:#E64C3C;" d="M13.977,29H17c0.553,0,1-0.448,1-1s-0.447-1-1-1h-3.023C13.988,27.332,14,27.665,14,28
	S13.988,28.668,13.977,29z"/>
<path style="fill:#C03A2B;" d="M10,28c0,0.552,0.447,1,1,1h2.977C13.988,28.668,14,28.335,14,28s-0.012-0.668-0.023-1H11
	C10.447,27,10,27.448,10,28z"/>
<path style="fill:#E64C3C;" d="M16.858,34.99c0.048,0.007,0.096,0.01,0.143,0.01c0.49,0,0.918-0.36,0.989-0.858
	c0.078-0.547-0.302-1.053-0.849-1.131l-3.511-0.502c-0.107,0.662-0.232,1.319-0.385,1.965L16.858,34.99z"/>
<path style="fill:#C03A2B;" d="M9.01,32.858c-0.078,0.547,0.302,1.053,0.849,1.131l3.387,0.484c0.153-0.646,0.277-1.303,0.385-1.965
	l-3.489-0.498C9.597,31.933,9.088,32.313,9.01,32.858z"/>
<path style="fill:#E64C3C;" d="M17.142,22.99c0.547-0.078,0.927-0.584,0.849-1.131c-0.078-0.546-0.587-0.93-1.132-0.848
	l-3.613,0.516c0.153,0.646,0.277,1.303,0.385,1.965L17.142,22.99z"/>
<path style="fill:#C03A2B;" d="M9.01,23.142C9.081,23.64,9.509,24,9.999,24c0.047,0,0.095-0.003,0.143-0.01l3.489-0.498
	c-0.107-0.662-0.232-1.319-0.385-1.965L9.858,22.01C9.312,22.088,8.932,22.595,9.01,23.142z"/>
<path style="fill:#E64C3C;" d="M15.316,16.949c0.523-0.175,0.807-0.741,0.632-1.265c-0.174-0.523-0.737-0.809-1.265-0.632
	l-3.317,1.106c0.283,0.604,0.55,1.218,0.79,1.845L15.316,16.949z"/>
<path style="fill:#C03A2B;" d="M8.052,18.316C8.191,18.735,8.581,19,9,19c0.104,0,0.211-0.017,0.316-0.052l2.841-0.947
	c-0.24-0.627-0.507-1.241-0.79-1.845l-2.683,0.894C8.16,17.226,7.877,17.792,8.052,18.316z"/>
<path style="fill:#E64C3C;" d="M14.684,40.949C14.789,40.984,14.896,41,15,41c0.419,0,0.809-0.265,0.948-0.684
	c0.175-0.524-0.108-1.09-0.632-1.265l-3.159-1.053c-0.24,0.627-0.507,1.241-0.79,1.845L14.684,40.949z"/>
<path style="fill:#C03A2B;" d="M8.052,37.684c-0.175,0.524,0.108,1.09,0.632,1.265l2.683,0.894c0.283-0.604,0.55-1.218,0.79-1.845
	l-2.841-0.947C8.788,36.876,8.227,37.16,8.052,37.684z"/>
<path style="fill:#E64C3C;" d="M42.023,27H39c-0.553,0-1,0.448-1,1s0.447,1,1,1h3.023C42.012,28.668,42,28.335,42,28
	S42.012,27.332,42.023,27z"/>
<path style="fill:#C03A2B;" d="M46,28c0-0.552-0.447-1-1-1h-2.977C42.012,27.332,42,27.665,42,28s0.012,0.668,0.023,1H45
	C45.553,29,46,28.552,46,28z"/>
<path style="fill:#E64C3C;" d="M39.142,21.01c-0.547-0.077-1.054,0.302-1.132,0.848c-0.078,0.547,0.302,1.053,0.849,1.131
	l3.511,0.502c0.107-0.662,0.232-1.319,0.385-1.965L39.142,21.01z"/>
<path style="fill:#C03A2B;" d="M46.001,24c0.49,0,0.918-0.36,0.989-0.858c0.078-0.547-0.302-1.053-0.849-1.131l-3.387-0.484
	c-0.153,0.646-0.277,1.303-0.385,1.965l3.489,0.498C45.906,23.997,45.954,24,46.001,24z"/>
<path style="fill:#E64C3C;" d="M38.858,33.01c-0.547,0.078-0.927,0.584-0.849,1.131C38.081,34.64,38.509,35,38.999,35
	c0.047,0,0.095-0.003,0.143-0.01l3.613-0.516c-0.153-0.646-0.277-1.303-0.385-1.965L38.858,33.01z"/>
<path style="fill:#C03A2B;" d="M46.99,32.858c-0.078-0.546-0.583-0.93-1.132-0.848l-3.489,0.498
	c0.107,0.662,0.232,1.319,0.385,1.965l3.387-0.484C46.688,33.912,47.068,33.405,46.99,32.858z"/>
<path style="fill:#E64C3C;" d="M40.684,39.051c-0.523,0.175-0.807,0.741-0.632,1.265C40.191,40.735,40.581,41,41,41
	c0.104,0,0.211-0.017,0.316-0.052l3.317-1.106c-0.283-0.604-0.55-1.218-0.79-1.845L40.684,39.051z"/>
<path style="fill:#C03A2B;" d="M47.948,37.684c-0.175-0.523-0.736-0.807-1.265-0.632l-2.841,0.947
	c0.24,0.627,0.507,1.241,0.79,1.845l2.683-0.894C47.84,38.774,48.123,38.208,47.948,37.684z"/>
<path style="fill:#E64C3C;" d="M41.316,15.051c-0.527-0.176-1.091,0.109-1.265,0.632c-0.175,0.524,0.108,1.09,0.632,1.265
	l3.159,1.053c0.24-0.627,0.507-1.241,0.79-1.845L41.316,15.051z"/>
<path style="fill:#C03A2B;" d="M47,19c0.419,0,0.809-0.265,0.948-0.684c0.175-0.524-0.108-1.09-0.632-1.265l-2.683-0.894
	c-0.283,0.604-0.55,1.218-0.79,1.845l2.841,0.947C46.789,18.984,46.896,19,47,19z"/>
<g>
</g>
<g>
</g>
<g>
</g>
<g>
</g>
<g>
</g>
<g>
</g>
<g>
</g>
<g>
</g>
<g>
</g>
<g>
</g>
<g>
</g>
<g>
</g>
<g>
</g>
<g>
</g>
<g>
</g>
</svg>
