<?xml version="1.0" standalone="no"?>
<!DOCTYPE svg PUBLIC "-//W3C//DTD SVG 20010904//EN"
 "http://www.w3.org/TR/2001/REC-SVG-20010904/DTD/svg10.dtd">
<svg version="1.0" xmlns="http://www.w3.org/2000/svg"
 width="512.000000pt" height="512.000000pt" viewBox="0 0 512.000000 512.000000"
 preserveAspectRatio="xMidYMid meet">
<metadata>
Created by potrace 1.10, written by Peter Selinger 2001-2011
</metadata>
<g transform="translate(0.000000,512.000000) scale(0.050000,-0.050000)"
fill="#ffffff" stroke="none">
<path d="M4150 10228 c-2412 -253 -4139 -2125 -4139 -4488 0 -3267 3367 -5441
6342 -4095 2939 1328 3556 5237 1172 7417 -897 821 -2241 1285 -3375 1166z
m-341 -979 l431 -315 0 -664 0 -665 -492 -357 c-270 -197 -592 -432 -715 -521
l-225 -164 -169 57 c-93 32 -376 125 -629 208 l-460 149 -145 437 c-80 240
-158 477 -173 528 l-28 91 112 149 c434 575 1115 1075 1809 1329 234 86 180
107 684 -262z m2073 254 c550 -204 1030 -513 1448 -932 325 -326 458 -508 434
-594 -10 -37 -88 -280 -174 -541 l-155 -473 -173 -61 c-419 -147 -1064 -343
-1087 -329 -14 8 -151 105 -305 217 -630 455 -1004 724 -1065 767 l-65 46 0
666 0 666 445 322 c245 176 455 322 467 322 12 1 116 -34 230 -76z m-3572
-3287 l380 -126 152 -460 c84 -253 205 -623 268 -823 l116 -362 -398 -548
-399 -547 -574 -5 -573 -6 -86 126 c-418 609 -648 1282 -696 2037 -19 302 -18
329 15 361 19 19 227 173 461 343 l426 309 264 -86 c145 -48 435 -143 644
-213z m5740 -58 l470 -341 -11 -204 c-47 -840 -286 -1561 -715 -2158 l-97
-135 -575 0 -575 0 -395 542 -394 543 60 182 c33 101 155 478 272 837 l213
655 533 172 c294 94 579 189 634 209 55 21 102 38 105 39 3 1 217 -153 475
-341z m-2321 -2539 c216 -298 398 -554 404 -569 6 -15 -68 -272 -165 -569
l-175 -542 -132 -38 c-779 -231 -1791 -217 -2442 35 -45 18 -69 76 -228 569
l-177 549 297 408 c163 224 345 473 404 553 l107 145 857 0 858 0 392 -541z"/>
</g>
</svg>
