<?xml version="1.0" standalone="no"?>
<!DOCTYPE svg PUBLIC "-//W3C//DTD SVG 20010904//EN"
 "http://www.w3.org/TR/2001/REC-SVG-20010904/DTD/svg10.dtd">
<svg version="1.0" xmlns="http://www.w3.org/2000/svg"
 width="512.000000pt" height="512.000000pt" viewBox="0 0 512.000000 512.000000"
 preserveAspectRatio="xMidYMid meet">
<metadata>
Created by potrace 1.10, written by Peter Selinger 2001-2011
</metadata>
<g transform="translate(0.000000,512.000000) scale(0.100000,-0.100000)"
fill="#ffffff" stroke="none">
<path d="M2075 5114 c-16 -2 -70 -9 -120 -15 -474 -57 -945 -289 -1295 -639
-631 -632 -830 -1571 -507 -2405 109 -283 287 -554 507 -775 572 -572 1405
-793 2185 -580 777 213 1382 829 1585 1615 50 194 64 318 64 555 0 237 -14
361 -64 555 -42 162 -83 273 -159 430 -323 665 -954 1130 -1686 1240 -103 16
-442 28 -510 19z m279 -275 c-5 -504 -184 -960 -541 -1377 l-28 -32 -493 493
-493 493 93 78 c310 259 696 427 1088 475 139 17 150 18 265 17 l110 -1 -1
-146z m346 101 c312 -65 649 -230 908 -446 l93 -78 -725 -725 -726 -726 -187
187 -186 186 50 55 c347 380 563 950 563 1484 l0 96 58 -7 c31 -4 100 -16 152
-26z m-1033 -1625 c-197 -164 -316 -246 -486 -330 -119 -60 -139 -81 -122
-129 19 -49 63 -48 172 5 163 79 384 227 501 337 l49 46 187 -187 187 -187
-726 -726 -726 -726 -79 96 c-227 276 -383 602 -449 936 -38 195 -44 180 74
180 179 0 467 41 611 87 69 23 94 58 70 101 -21 37 -51 38 -179 8 -165 -40
-300 -57 -465 -59 l-151 -2 -3 75 c-2 41 2 131 8 200 41 449 205 851 486 1188
l78 93 493 -493 494 -493 -24 -20z m2257 850 c140 -177 256 -394 331 -618 44
-130 94 -349 95 -409 l0 -28 -99 0 c-530 0 -1099 -217 -1478 -563 l-55 -50
-186 186 -187 187 725 725 725 726 33 -38 c18 -21 62 -74 96 -118z m444 -1265
c2 -41 -2 -131 -8 -200 -41 -448 -206 -852 -486 -1188 l-78 -93 -493 493 -493
493 32 28 c168 143 306 237 473 320 301 150 624 226 945 223 l105 -1 3 -75z
m-1929 -314 l184 -185 -50 -54 c-346 -379 -563 -948 -563 -1478 l0 -99 -27 0
c-61 1 -279 51 -413 96 -241 80 -474 210 -678 380 l-93 78 723 723 c398 398
725 723 728 723 3 0 88 -83 189 -184z m1224 -1294 c-360 -314 -769 -489 -1243
-532 -69 -6 -159 -10 -200 -8 l-75 3 1 146 c5 476 183 953 495 1322 l74 87
493 -492 493 -493 -38 -33z"/>
</g>
</svg>
