<?xml version="1.0" standalone="no"?>
<!DOCTYPE svg PUBLIC "-//W3C//DTD SVG 20010904//EN"
 "http://www.w3.org/TR/2001/REC-SVG-20010904/DTD/svg10.dtd">
<svg version="1.0" xmlns="http://www.w3.org/2000/svg"
 width="82.000000pt" height="103.000000pt" viewBox="0 0 82.000000 103.000000"
 preserveAspectRatio="xMidYMid meet">
<metadata>
Created by potrace 1.10, written by Peter Selinger 2001-2011
</metadata>
<g transform="translate(0.000000,103.000000) scale(0.100000,-0.100000)"
fill="#ffffff" stroke="none">
<path d="M164 976 c-37 -37 -44 -49 -44 -83 0 -22 7 -59 15 -82 8 -23 17 -70
21 -105 6 -54 3 -68 -19 -112 -47 -92 -60 -158 -55 -268 6 -106 28 -183 71
-248 23 -33 23 -33 113 -36 80 -2 92 0 108 17 18 20 19 20 57 1 86 -44 225
-13 282 62 46 61 57 94 57 168 0 81 -14 116 -69 173 -60 64 -102 80 -194 75
l-79 -5 -24 55 c-28 64 -31 138 -9 202 8 23 15 67 15 97 0 51 -3 59 -39 94
-37 37 -42 39 -101 39 -61 0 -64 -1 -106 -44z m191 -8 c14 -11 23 -24 20 -29
-4 -5 -2 -9 3 -9 5 0 9 -22 9 -50 1 -27 -3 -50 -9 -50 -5 0 -7 -3 -5 -7 3 -5
0 -19 -6 -33 -13 -33 -19 -182 -6 -175 8 6 13 -8 10 -27 0 -5 4 -8 10 -8 6 0
9 -7 5 -15 -3 -8 -1 -15 5 -15 6 0 8 -4 4 -9 -3 -5 -1 -12 5 -16 5 -3 10 -15
10 -26 0 -10 7 -19 15 -19 8 0 15 5 15 11 0 5 5 7 10 4 6 -3 10 -2 10 3 0 6
32 10 70 10 39 0 70 -4 70 -10 0 -5 5 -6 10 -3 5 3 10 1 10 -5 0 -6 5 -8 10
-5 6 3 10 1 10 -6 0 -7 3 -9 7 -5 9 8 74 -55 67 -66 -3 -4 0 -8 6 -8 6 0 8 -4
5 -10 -3 -5 -1 -10 5 -10 6 0 8 -4 5 -10 -3 -5 -2 -10 3 -10 6 0 10 -31 10
-70 0 -38 -4 -70 -10 -70 -5 0 -6 -5 -3 -10 3 -6 1 -10 -5 -10 -6 0 -8 -5 -5
-10 3 -6 1 -10 -5 -10 -6 0 -9 -4 -6 -8 7 -11 -58 -74 -67 -66 -4 4 -7 2 -7
-5 0 -7 -4 -9 -10 -6 -5 3 -10 1 -10 -5 0 -6 -4 -8 -10 -5 -5 3 -10 2 -10 -3
0 -6 -31 -10 -70 -10 -38 0 -70 4 -70 10 0 5 -4 6 -10 3 -5 -3 -10 -1 -10 5 0
6 -4 8 -10 5 -6 -3 -10 -1 -10 5 0 6 -5 8 -10 5 -6 -3 -13 1 -16 9 -7 19 -28
22 -21 4 2 -7 0 -21 -5 -30 -7 -15 -23 -18 -98 -18 l-89 0 -16 30 c-9 17 -13
35 -10 40 3 6 1 10 -5 10 -6 0 -9 4 -5 9 3 5 0 13 -6 16 -5 4 -8 13 -5 21 3 8
0 14 -5 14 -6 0 -9 9 -6 20 3 11 1 20 -3 20 -11 0 -11 198 0 205 5 3 7 12 4
19 -3 8 -1 17 5 20 6 4 8 13 4 21 -3 8 0 15 7 15 6 0 8 5 5 10 -3 6 -2 10 4
10 6 0 8 7 5 15 -4 8 -1 15 5 15 6 0 10 3 10 8 -3 19 2 33 10 27 8 -4 9 154 1
163 -1 1 -4 7 -5 12 -1 6 -4 13 -5 18 -1 4 -2 10 -1 15 0 4 -3 7 -8 7 -5 0 -9
23 -8 50 0 28 4 50 9 50 5 0 7 4 3 9 -3 5 6 18 20 29 18 15 40 20 85 20 45 0
67 -5 85 -20z"/>
<path d="M210 930 c-16 -16 -21 -90 -7 -90 5 0 5 -4 2 -10 -3 -5 -1 -10 5 -10
7 0 10 -7 6 -15 -3 -8 0 -15 5 -15 6 0 9 -9 6 -20 -5 -18 0 -20 43 -20 43 0
48 2 43 20 -3 11 0 20 6 20 5 0 8 7 5 15 -4 8 -1 15 6 15 6 0 8 5 5 10 -3 6
-2 10 2 10 14 0 9 74 -7 90 -20 21 -100 21 -120 0z m91 -20 c14 0 11 -56 -5
-95 -8 -19 -21 -35 -29 -35 -15 0 -47 71 -47 103 0 19 37 39 58 31 8 -2 18 -4
23 -4z"/>
<path d="M233 670 c1 -39 2 -40 37 -40 35 0 35 1 35 40 0 39 0 40 -36 40 -36
0 -37 0 -36 -40z"/>
<path d="M209 583 c-1 -5 -1 -11 0 -15 0 -5 -4 -8 -10 -8 -5 0 -7 -4 -4 -10 3
-5 1 -10 -5 -10 -6 0 -8 -4 -5 -10 3 -5 3 -10 -2 -10 -4 0 -9 -11 -9 -25 -1
-14 -5 -33 -9 -43 -9 -22 -10 -186 -1 -201 4 -6 5 -15 1 -20 -3 -5 -1 -12 5
-16 6 -4 8 -10 5 -15 -3 -5 -1 -11 5 -15 6 -4 8 -11 5 -16 -4 -5 -1 -9 5 -9 6
0 8 -4 5 -10 -3 -5 -1 -10 4 -10 6 0 10 -6 9 -12 -2 -9 12 -14 41 -16 53 -4
94 5 86 18 -3 6 -2 10 2 10 5 0 9 9 9 20 0 11 -4 20 -9 20 -4 0 -5 5 -2 10 3
6 1 10 -5 10 -6 0 -8 5 -5 10 3 6 2 10 -3 10 -6 0 -10 32 -10 70 0 39 4 70 10
70 5 0 6 5 3 10 -3 6 -1 10 5 10 6 0 8 5 5 10 -3 6 -1 10 5 10 6 0 9 4 5 9 -3
5 3 16 12 23 20 14 21 31 6 68 -6 14 -9 28 -6 33 2 4 -1 7 -7 7 -6 0 -8 5 -5
10 3 6 1 10 -5 10 -6 0 -9 4 -6 9 3 5 -1 12 -10 15 -22 9 -114 7 -115 -1z
m106 -46 c24 -38 30 -85 12 -105 -46 -50 -61 -160 -32 -229 24 -57 21 -65 -27
-61 l-43 3 -23 65 c-30 86 -27 230 5 303 20 43 25 47 57 47 26 0 40 -6 51 -23z"/>
<path d="M470 457 c0 -5 -4 -5 -10 -2 -5 3 -10 1 -10 -6 0 -7 -2 -10 -5 -7 -8
7 -72 -55 -67 -64 2 -5 -2 -8 -8 -8 -6 0 -8 -4 -5 -10 3 -5 3 -10 -2 -10 -4 0
-8 -27 -8 -60 0 -33 4 -60 8 -60 5 0 5 -5 2 -10 -3 -5 -1 -10 6 -10 7 0 10 -2
7 -5 -7 -8 55 -72 65 -67 4 2 7 -2 7 -8 0 -6 5 -8 10 -5 6 3 10 3 10 -2 0 -4
27 -8 60 -8 33 0 60 4 60 8 0 5 5 5 10 2 6 -3 10 -1 10 5 0 6 3 10 8 8 9 -5
71 59 64 67 -3 3 0 5 7 5 7 0 9 5 6 10 -3 5 -3 10 2 10 4 0 8 27 8 60 0 33 -4
60 -8 60 -5 0 -5 5 -2 10 3 6 1 10 -6 10 -7 0 -10 2 -7 5 7 8 -55 72 -64 67
-5 -2 -8 2 -8 8 0 6 -4 8 -10 5 -5 -3 -10 -3 -10 2 0 4 -27 8 -60 8 -33 0 -60
-4 -60 -8z m20 -52 c0 -14 -8 -29 -21 -35 -15 -8 -19 -19 -17 -42 4 -39 30
-58 58 -40 16 10 24 10 40 0 28 -18 54 1 58 40 2 23 -2 34 -17 42 -22 11 -30
60 -10 60 6 0 29 -17 50 -39 37 -37 39 -42 39 -101 0 -59 -2 -64 -39 -101 -36
-36 -43 -39 -95 -39 -105 0 -146 40 -146 143 0 63 1 66 40 101 47 42 60 45 60
11z m60 5 c0 -13 -7 -20 -20 -20 -13 0 -20 7 -20 20 0 13 7 20 20 20 13 0 20
-7 20 -20z m-40 -80 c0 -13 -7 -20 -20 -20 -13 0 -20 7 -20 20 0 13 7 20 20
20 13 0 20 -7 20 -20z m80 0 c0 -13 -7 -20 -20 -20 -13 0 -20 7 -20 20 0 13 7
20 20 20 13 0 20 -7 20 -20z"/>
</g>
</svg>
