<svg id="Capa_1" enable-background="new 0 0 512 512" height="512" viewBox="0 0 512 512" width="512" xmlns="http://www.w3.org/2000/svg"><path d="m275.03 8.23c.01.07.01.13.02.2l-7.58 7.58-8.49-8.49c5.35.06 10.71.3 16.05.71z" fill="#ff4f4d"/><path d="m431.72 80.28c-43.68-43.68-99.58-67.7-156.69-72.05.01.07.01.13.02.2l160.957 296.303 67.763-67.763c-4.35-57.11-28.37-113.01-72.05-156.69z" fill="#fe7453"/><path d="m473.83 236.49c-8.25-120.96-92.68-217.63-198.78-228.06l-266.82 266.6c4.35 57.11 28.37 113.01 72.05 156.69s99.58 67.7 156.69 72.05z" fill="#fc985a"/><path d="m275.05 8.43c5.25 69.71-18.77 141.22-72.08 194.54-53.37 53.36-124.96 77.38-194.74 72.06-5.33-69.78 18.69-141.38 72.05-194.75 48.52-48.52 112.12-72.78 175.72-72.78 1 0 1.99.01 2.98.02 5.41.09 10.77.39 16.07.91z" fill="#fe7453"/><path d="m503.77 236.97c-9.96-.76-19.96-.92-29.94-.48l-214.85 267.99c62.6-.74 124.98-25 172.74-72.76 53.36-53.37 77.38-124.97 72.05-194.75z" fill="#ff4f4d"/><path d="m474.5 256c0-6.57-.22-13.07-.67-19.51-59.91 2.62-119.05 26.8-164.8 72.54-53.36 53.37-77.38 124.96-72.06 194.74 6.34.49 12.68.73 19.03.73 1 0 1.99-.01 2.98-.02 119.3-1.82 215.52-112.37 215.52-248.48z" fill="#fe7453"/><path d="m437.019 74.981c-48.352-48.352-112.639-74.981-181.019-74.981s-132.667 26.629-181.019 74.981-74.981 112.639-74.981 181.019 26.629 132.667 74.981 181.019 112.639 74.981 181.019 74.981 132.667-26.629 181.019-74.981 74.981-112.639 74.981-181.019-26.629-132.667-74.981-181.019zm58.476 154.011c-69.029-2.888-136.133 22.118-186.38 69.517l-42.509-42.509 165.02-165.02c36.006 38.262 58.14 86.311 63.869 138.012zm-196.986 80.123c-47.398 50.247-72.404 117.349-69.517 186.38-51.701-5.729-99.75-27.863-138.011-63.869l165.019-165.02zm-42.509-63.721-42.509-42.509c47.398-50.247 72.404-117.349 69.517-186.38 51.701 5.729 99.75 27.863 138.011 63.869zm11.955-230.104c3.237 65.49-20.232 129.266-65.078 176.98l-111.896-111.896c44.852-42.209 103.152-65.374 165.019-65.374 4.001 0 7.987.098 11.955.29zm-251.449 267.731c3.639.154 7.275.238 10.905.238 25.084 0 49.907-3.665 74.03-10.945 3.965-1.197 6.21-5.382 5.013-9.347-1.197-3.966-5.382-6.208-9.347-5.013-26.588 8.025-54.079 11.375-81.817 9.995-.192-3.967-.29-7.95-.29-11.949 0-61.867 23.165-120.167 65.374-165.02l111.896 111.896c-20.011 18.826-42.808 33.948-67.881 44.98-3.792 1.668-5.513 6.094-3.844 9.885 1.236 2.809 3.985 4.481 6.869 4.481 1.009 0 2.034-.205 3.017-.637 26.781-11.784 51.117-27.953 72.452-48.097l42.511 42.512-165.02 165.02c-36.003-38.259-58.136-86.303-63.868-137.999zm227.539 213.689c-3.237-65.49 20.232-129.266 65.078-176.98l111.896 111.896c-44.852 42.209-103.152 65.374-165.019 65.374-4.001 0-7.987-.098-11.955-.29zm187.581-75.69-111.897-111.897c47.715-44.845 111.493-68.309 176.98-65.078.193 3.969.291 7.955.291 11.955 0 61.867-23.165 120.167-65.374 165.02z"/></svg>