<?xml version="1.0" standalone="no"?>
<!DOCTYPE svg PUBLIC "-//W3C//DTD SVG 20010904//EN"
 "http://www.w3.org/TR/2001/REC-SVG-20010904/DTD/svg10.dtd">
<svg version="1.0" xmlns="http://www.w3.org/2000/svg"
 width="512.000000pt" height="512.000000pt" viewBox="0 0 512.000000 512.000000"
 preserveAspectRatio="xMidYMid meet">
<metadata>
Created by potrace 1.10, written by Peter Selinger 2001-2011
</metadata>
<g transform="translate(0.000000,512.000000) scale(0.100000,-0.100000)"
fill="#ffffff" stroke="none">
<path d="M2740 5110 c-191 -27 -382 -83 -547 -160 -56 -27 -106 -57 -112 -68
-19 -36 -13 -72 19 -104 39 -39 61 -36 199 26 208 93 405 136 616 136 224 0
387 -39 586 -141 414 -214 731 -628 805 -1053 22 -123 14 -384 -14 -506 -86
-363 -288 -714 -613 -1062 -292 -313 -640 -483 -1032 -505 l-119 -6 -739 739
-739 739 0 72 c0 216 74 484 191 688 70 122 144 220 261 341 86 90 98 107 98
137 0 27 -7 41 -31 61 -17 14 -41 26 -53 26 -34 0 -92 -46 -185 -147 -430
-466 -570 -1113 -368 -1703 29 -88 32 -105 32 -220 -1 -104 -4 -134 -22 -178
-45 -112 -76 -145 -457 -484 -204 -182 -395 -354 -425 -382 -89 -85 -110 -158
-70 -246 29 -63 395 -431 463 -465 91 -45 164 -26 252 66 28 30 200 221 382
425 339 381 372 412 484 457 44 18 74 21 178 22 116 0 132 -2 225 -33 436
-146 899 -112 1305 94 172 88 292 177 440 324 500 499 772 1082 746 1600 -10
213 -54 388 -146 575 -126 260 -351 513 -609 686 -255 172 -483 246 -781 254
-85 2 -184 0 -220 -5z m-1340 -2575 c0 -5 -50 -54 -110 -108 l-110 -98 0 78
c0 80 -14 148 -69 332 -17 57 -31 109 -31 115 0 6 72 -61 160 -149 88 -88 160
-164 160 -170z m352 -422 c-210 -245 -1171 -1312 -1182 -1312 -19 -1 -390 369
-389 389 0 8 305 286 677 617 l677 603 127 -127 127 -127 -37 -43z m333 -253
c88 -88 155 -160 149 -160 -6 0 -58 14 -115 31 -184 55 -252 69 -332 69 l-78
0 98 110 c54 60 103 110 108 110 6 0 82 -72 170 -160z"/>
<path d="M1767 4700 c-53 -42 -40 -124 23 -150 27 -11 37 -11 66 3 59 29 71
92 25 138 -35 35 -77 38 -114 9z"/>
<path d="M2726 3425 c-131 -33 -266 -137 -334 -256 -37 -65 -72 -191 -72 -258
1 -295 246 -541 539 -541 79 0 205 34 268 72 104 63 202 182 240 291 25 73 25
271 0 344 -52 149 -183 281 -333 334 -77 28 -226 34 -308 14z m208 -170 c102
-17 199 -96 249 -203 27 -58 32 -78 32 -147 0 -69 -5 -89 -32 -147 -71 -150
-214 -228 -380 -207 -107 14 -207 86 -264 191 -32 60 -34 68 -34 163 0 90 3
105 28 153 57 109 154 183 263 202 49 8 63 7 138 -5z"/>
</g>
</svg>
