<?xml version="1.0" standalone="no"?>
<!DOCTYPE svg PUBLIC "-//W3C//DTD SVG 20010904//EN"
 "http://www.w3.org/TR/2001/REC-SVG-20010904/DTD/svg10.dtd">
<svg version="1.0" xmlns="http://www.w3.org/2000/svg"
 width="512.000000pt" height="512.000000pt" viewBox="0 0 512.000000 512.000000"
 preserveAspectRatio="xMidYMid meet">
<metadata>
Created by potrace 1.10, written by Peter Selinger 2001-2011
</metadata>
<g transform="translate(0.000000,512.000000) scale(0.050000,-0.050000)"
fill="#ffffff" stroke="none">
<path d="M4055 10220 c-3596 -412 -5319 -4614 -3014 -7350 2339 -2775 6779
-1837 7786 1644 871 3011 -1679 6060 -4772 5706z m946 -321 c914 -113 1809
-547 2426 -1175 l117 -119 -121 -163 c-147 -198 -314 -465 -411 -659 -84 -166
-61 -160 -306 -81 -227 74 -310 58 -336 -63 -23 -103 35 -159 235 -229 219
-77 209 -57 138 -274 -33 -102 -71 -225 -83 -274 l-23 -87 -113 13 c-416 47
-464 35 -464 -115 0 -109 59 -145 297 -180 249 -37 222 10 186 -318 l-30 -275
-174 0 c-215 0 -279 -36 -279 -158 0 -122 49 -151 269 -159 l186 -7 23 -243
c13 -134 28 -258 34 -276 11 -38 -4 -42 -270 -79 -193 -27 -242 -61 -242 -168
0 -154 45 -165 464 -118 l113 13 23 -87 c12 -49 50 -172 83 -274 71 -217 81
-197 -138 -274 -200 -70 -258 -126 -235 -229 26 -121 109 -137 336 -63 245 79
222 85 306 -81 97 -194 264 -461 411 -659 l121 -163 -147 -149 c-1542 -1559
-4271 -1550 -5814 20 l-127 129 121 163 c147 198 314 465 411 659 84 166 67
161 308 81 208 -69 278 -62 321 34 54 119 -5 188 -222 259 -215 71 -209 57
-138 272 33 103 71 226 83 275 l23 87 113 -13 c419 -47 464 -36 464 118 0 107
-49 141 -242 168 -278 39 -283 40 -271 89 6 24 22 148 35 276 l23 233 186 7
c219 8 269 37 269 157 0 120 -50 149 -269 157 l-186 7 -23 243 c-13 134 -28
258 -34 276 -11 38 5 42 269 79 190 26 243 64 243 172 0 149 -48 161 -464 114
l-113 -13 -23 87 c-12 49 -50 172 -83 275 -71 215 -77 201 138 272 217 71 276
140 222 259 -43 96 -113 103 -321 34 -241 -80 -224 -85 -308 81 -97 194 -264
461 -411 659 l-121 163 127 130 c838 856 2188 1316 3418 1164z m-3677 -1634
c153 -202 436 -678 436 -733 0 -5 -61 -29 -135 -53 -219 -71 -287 -181 -182
-293 56 -59 114 -58 297 4 81 27 149 47 153 44 12 -12 125 -373 138 -440 15
-81 29 -74 -261 -113 -165 -23 -216 -66 -206 -177 11 -131 72 -153 324 -119
118 16 218 22 223 13 15 -24 48 -297 48 -403 l1 -95 -172 0 c-257 0 -366 -125
-230 -262 56 -55 68 -58 230 -58 l172 0 -1 -95 c0 -129 -35 -390 -54 -407 -8
-7 -108 0 -222 17 -245 35 -308 12 -319 -119 -10 -111 41 -154 206 -177 252
-33 270 -38 270 -76 0 -32 -133 -462 -147 -477 -3 -3 -72 17 -153 44 -180 61
-234 62 -294 7 -113 -106 -42 -224 179 -296 74 -24 135 -48 135 -53 0 -61
-441 -782 -501 -819 -26 -16 -68 35 -238 287 -978 1452 -933 3400 112 4812
116 157 102 154 191 37z m6543 -37 c1103 -1491 1073 -3717 -69 -5067 l-41 -50
-40 50 c-139 172 -477 730 -477 787 0 5 61 29 135 53 219 71 287 181 182 293
-56 59 -114 58 -297 -4 -81 -27 -150 -47 -153 -44 -14 15 -147 445 -147 477 0
38 18 43 270 76 165 23 216 66 206 177 -11 131 -72 153 -324 119 -118 -16
-218 -22 -223 -13 -15 24 -48 297 -48 403 l-1 95 172 0 c162 0 174 3 230 58
136 137 27 262 -230 262 l-172 0 1 95 c0 129 35 390 54 407 8 7 108 0 222 -17
245 -35 308 -12 319 119 11 132 -109 187 -471 216 -21 1 121 520 142 520 3 0
72 -22 153 -50 180 -61 234 -62 294 -7 113 106 42 224 -179 296 -74 24 -135
48 -135 53 0 76 473 829 519 828 6 -1 55 -60 108 -132z"/>
</g>
</svg>
